<svg width="36" height="29" viewBox="0 0 36 29" fill="none" xmlns="http://www.w3.org/2000/svg">
<path fill-rule="evenodd" clip-rule="evenodd" d="M28.335 1.12716C30.9617 -1.34545 35.2724 0.516889 35.2724 4.12432V24.3731C35.2724 27.9805 30.9617 29.8429 28.335 27.3703C28.3174 27.3537 28.3004 27.3367 28.2838 27.3192L16.0645 14.3992L5.20845 2.91805C4.16801 1.97277 2.48883 2.70866 2.48883 4.12433V24.3731C2.48883 25.7893 4.16922 26.5252 5.20957 25.5784L10.61 19.8991C11.0836 19.401 11.8712 19.3812 12.3693 19.8548C12.8673 20.3284 12.8872 21.1161 12.4136 21.6141L6.98629 27.3217C6.97046 27.3383 6.95417 27.3545 6.93744 27.3703C4.3107 29.8429 1.00419e-06 27.9805 0 24.3731V4.12433C0 0.516903 4.31071 -1.34544 6.93744 1.12717C6.95502 1.14372 6.97211 1.16078 6.9887 1.17832L17.8727 12.689L30.0639 25.5793C31.1043 26.5247 32.7836 25.7888 32.7836 24.3731V4.12432C32.7836 2.70813 31.1032 1.97222 30.0628 2.91906L24.6624 8.59833C24.1888 9.09638 23.4012 9.1162 22.9031 8.64261C22.4051 8.16902 22.3852 7.38135 22.8588 6.8833L28.2861 1.17576C28.3019 1.15911 28.3182 1.14291 28.335 1.12716Z" fill="#4A46FF"/>
</svg>
